<svg xmlns="http://www.w3.org/2000/svg" viewBox="0 0 385.3 360.13"><defs><style>.cls-1{fill:#231815;}.cls-2{fill:none;stroke:#231815;stroke-miterlimit:10;stroke-width:14px;}</style></defs><title>资源 1</title><g id="图层_2" data-name="图层 2"><g id="图层_2-2" data-name="图层 2"><polygon class="cls-1" points="120.47 95.92 138.67 100.15 127.93 181.66 99.85 175.53 120.47 95.92"/><polygon class="cls-1" points="196.61 75.25 213.77 73.26 220.74 167.67 198.78 171.24 196.61 75.25"/><polygon class="cls-1" points="188.19 116.56 127.42 119.36 127.42 136.98 192.27 129.58 188.19 116.56"/><polygon class="cls-1" points="264.14 108.18 213.34 109.71 213.34 121.2 266.44 115.84 264.14 108.18"/><polygon class="cls-1" points="229.17 132.07 242.95 126.96 259.04 144.33 236.31 160.01 229.17 132.07"/><polygon class="cls-1" points="144.72 150.17 154.25 145.63 174.97 162.63 161.06 176.06 144.72 150.17"/><polygon class="cls-1" points="207.53 227.04 232.48 220.62 235.42 241.15 210.54 241.19 207.53 227.04"/><polygon class="cls-1" points="111.04 198.67 158.61 195.51 163.38 253.21 186.99 240.68 190.78 249.13 154.02 272.58 138.53 265.64 140.94 208.65 114.1 210.16 111.04 198.67"/><path class="cls-1" d="M183.15,187.6,249,181.66s10.88,74.1,14.19,82.62,12.33,21.5,36,20.93c32-.76,48.49-20.59,48.49-20.59l5.11,7.83S324.45,301,294.4,303.37c-29,2.3-52.09-9.61-58.34-28.88-2.6-8-8.43-74.45-8.43-74.45l-32.42,2.45.51,73-12.52-2Z"/></g><g id="图层_3" data-name="图层 3"><path class="cls-2" d="M378.26,185.75C376.21,304.62,273.54,334.4,174.13,334.4S-16.14,209.81,12.29,131.05C33.65,71.86,99.87,16.88,172.21,7.86,270.86-4.45,379.4,118.84,378.26,185.75Z"/><path class="cls-2" d="M378.17,171.34C382.24,317,290.69,353.13,191.28,353.13S8.47,209.81,36.89,131.05C58.26,71.86,90.17,19.51,162.51,10.49,261.16-1.81,374.77,49.47,378.17,171.34Z"/></g></g></svg>